<svg width="30" height="30" viewBox="0 0 30 30" fill="none" xmlns="http://www.w3.org/2000/svg">
<g clip-path="url(#clip0)">
<path d="M16.0625 22.9688H13.5002C13.0723 22.9688 12.7241 22.6206 12.7241 22.1926V16.4133H11.2292C10.8013 16.4133 10.4531 16.0651 10.4531 15.6372V13.1608C10.4531 12.7328 10.8013 12.3846 11.2292 12.3846H12.7241V11.1445C12.7241 9.91492 13.1102 8.86877 13.8406 8.11938C14.5742 7.36658 15.5995 6.96875 16.8055 6.96875L18.7596 6.97192C19.1869 6.97266 19.5344 7.3208 19.5344 7.74805V10.0474C19.5344 10.4753 19.1864 10.8235 18.7585 10.8235L17.4429 10.824C17.0416 10.824 16.9395 10.9044 16.9176 10.9291C16.8816 10.97 16.8387 11.0856 16.8387 11.4048V12.3845H18.6597C18.7968 12.3845 18.9296 12.4183 19.0437 12.4821C19.2899 12.6196 19.443 12.8798 19.443 13.1609L19.442 15.6373C19.442 16.0651 19.0939 16.4132 18.6659 16.4132H16.8387V22.1926C16.8387 22.6206 16.4905 22.9688 16.0625 22.9688ZM13.6621 22.0308H15.9006V15.9934C15.9006 15.7076 16.1332 15.4752 16.4188 15.4752H18.504L18.5049 13.3226H16.4187C16.1331 13.3226 15.9006 13.0902 15.9006 12.8044V11.4048C15.9006 11.0383 15.9379 10.6216 16.2145 10.3084C16.5487 9.92969 17.0754 9.88599 17.4426 9.88599L18.5964 9.8855V7.90967L16.8048 7.90674C14.8666 7.90674 13.6621 9.14746 13.6621 11.1445V12.8044C13.6621 13.0901 13.4297 13.3226 13.144 13.3226H11.3911V15.4752H13.144C13.4297 15.4752 13.6621 15.7076 13.6621 15.9934V22.0308ZM18.7578 7.90991H18.7579H18.7578Z" fill="url(#paint0_linear)"/>
</g>
<circle opacity="0.7" cx="15" cy="15" r="14.5" stroke="url(#paint1_linear)"/>
<defs>
<linearGradient id="paint0_linear" x1="19.5344" y1="6.96875" x2="6.70071" y2="13.054" gradientUnits="userSpaceOnUse">
<stop stop-color="#C89A4B"/>
<stop offset="0.505208" stop-color="#F7E6AE"/>
<stop offset="1" stop-color="#C89A4B"/>
</linearGradient>
<linearGradient id="paint1_linear" x1="30" y1="0" x2="-0.583636" y2="25.5496" gradientUnits="userSpaceOnUse">
<stop stop-color="#F7E6AE" stop-opacity="0"/>
<stop offset="1" stop-color="#C89A4B"/>
</linearGradient>
<clipPath id="clip0">
<rect width="15.9688" height="16" fill="white" transform="translate(7 7)"/>
</clipPath>
</defs>
</svg>
