<svg width="24" height="24" viewBox="0 0 24 24" fill="none" xmlns="http://www.w3.org/2000/svg">
<path d="M10.5938 24C8.26753 24 6.375 22.1075 6.375 19.7812V5.625C6.375 2.52338 8.89838 0 12 0C15.1016 0 17.625 2.52338 17.625 5.625V19.7812H16.2188V5.625C16.2188 3.29878 14.3262 1.40625 12 1.40625C9.67378 1.40625 7.78125 3.29878 7.78125 5.625V19.7812C7.78125 21.3321 9.04294 22.5938 10.5938 22.5938C12.1446 22.5938 13.4062 21.3321 13.4062 19.7812V8.4375C13.4062 7.66209 12.7754 7.03125 12 7.03125C11.2246 7.03125 10.5938 7.66209 10.5938 8.4375V19.7812H9.1875V8.4375C9.1875 6.88669 10.4492 5.625 12 5.625C13.5508 5.625 14.8125 6.88669 14.8125 8.4375V19.7812C14.8125 22.1075 12.92 24 10.5938 24Z" fill="url(#paint0_linear)"/>
<defs>
<linearGradient id="paint0_linear" x1="17.625" y1="0" x2="0.741146" y2="6.61162" gradientUnits="userSpaceOnUse">
<stop stop-color="#C89A4B"/>
<stop offset="0.505208" stop-color="#F7E6AE"/>
<stop offset="1" stop-color="#C89A4B"/>
</linearGradient>
</defs>
</svg>
