<svg width="30" height="30" viewBox="0 0 30 30" fill="none" xmlns="http://www.w3.org/2000/svg">
<path d="M18.6689 7H11.331C8.94287 7 7 8.94287 7 11.331V18.669C7 21.0571 8.94287 23 11.331 23H18.669C21.0571 23 23 21.0571 23 18.669V11.331C23 8.94287 21.0571 7 18.6689 7V7ZM22.062 18.669C22.062 20.5399 20.5399 22.062 18.6689 22.062H11.331C9.46008 22.062 7.93799 20.5399 7.93799 18.669V11.331C7.93799 9.46008 9.46008 7.93799 11.331 7.93799H18.669C20.5399 7.93799 22.062 9.46008 22.062 11.331V18.669Z" fill="url(#paint0_linear)"/>
<path d="M15 10.625C12.5876 10.625 10.6251 12.5875 10.6251 14.9999C10.6251 17.4122 12.5876 19.3747 15 19.3747C17.4123 19.3747 19.3749 17.4122 19.3749 14.9999C19.3749 12.5875 17.4123 10.625 15 10.625ZM15 18.4368C13.105 18.4368 11.5631 16.895 11.5631 14.9999C11.5631 13.1049 13.105 11.563 15 11.563C16.8951 11.563 18.4369 13.1049 18.4369 14.9999C18.4369 16.895 16.8951 18.4368 15 18.4368Z" fill="url(#paint1_linear)"/>
<path d="M19.4794 9.07129C18.7665 9.07129 18.1867 9.65124 18.1867 10.364C18.1867 11.0769 18.7665 11.6569 19.4794 11.6569C20.1923 11.6569 20.7723 11.0769 20.7723 10.364C20.7723 9.65112 20.1923 9.07129 19.4794 9.07129ZM19.4794 10.7187C19.2839 10.7187 19.1247 10.5596 19.1247 10.364C19.1247 10.1683 19.2839 10.0093 19.4794 10.0093C19.6751 10.0093 19.8343 10.1683 19.8343 10.364C19.8343 10.5596 19.6751 10.7187 19.4794 10.7187Z" fill="url(#paint2_linear)"/>
<circle opacity="0.7" cx="15" cy="15" r="14.5" stroke="url(#paint3_linear)"/>
<defs>
<linearGradient id="paint0_linear" x1="23" y1="7" x2="6.68873" y2="20.6264" gradientUnits="userSpaceOnUse">
<stop stop-color="#C89A4B"/>
<stop offset="0.505208" stop-color="#F7E6AE"/>
<stop offset="1" stop-color="#C89A4B"/>
</linearGradient>
<linearGradient id="paint1_linear" x1="19.3749" y1="10.625" x2="10.4549" y2="18.0767" gradientUnits="userSpaceOnUse">
<stop stop-color="#C89A4B"/>
<stop offset="0.505208" stop-color="#F7E6AE"/>
<stop offset="1" stop-color="#C89A4B"/>
</linearGradient>
<linearGradient id="paint2_linear" x1="20.7723" y1="9.07129" x2="18.1364" y2="11.2733" gradientUnits="userSpaceOnUse">
<stop stop-color="#C89A4B"/>
<stop offset="0.505208" stop-color="#F7E6AE"/>
<stop offset="1" stop-color="#C89A4B"/>
</linearGradient>
<linearGradient id="paint3_linear" x1="30" y1="0" x2="-0.583636" y2="25.5496" gradientUnits="userSpaceOnUse">
<stop stop-color="#F7E6AE" stop-opacity="0"/>
<stop offset="1" stop-color="#C89A4B"/>
</linearGradient>
</defs>
</svg>
