<svg width="29" height="32" viewBox="0 0 29 32" fill="none" xmlns="http://www.w3.org/2000/svg">
<path d="M3.375 23.375C3.1525 23.375 2.93499 23.441 2.74998 23.5646C2.56498 23.6882 2.42078 23.8639 2.33564 24.0695C2.25049 24.2751 2.22821 24.5013 2.27162 24.7195C2.31503 24.9377 2.42217 25.1382 2.57951 25.2955C2.73684 25.4528 2.9373 25.56 3.15552 25.6034C3.37375 25.6468 3.59995 25.6245 3.80552 25.5394C4.01109 25.4542 4.18679 25.31 4.3104 25.125C4.43402 24.94 4.5 24.7225 4.5 24.5C4.49967 24.2017 4.38103 23.9158 4.17013 23.7049C3.95922 23.494 3.67327 23.3753 3.375 23.375ZM3.375 24.875C3.30083 24.875 3.22833 24.853 3.16666 24.8118C3.10499 24.7706 3.05693 24.712 3.02855 24.6435C3.00016 24.575 2.99274 24.4996 3.00721 24.4268C3.02168 24.3541 3.05739 24.2873 3.10984 24.2348C3.16228 24.1824 3.2291 24.1467 3.30184 24.1322C3.37458 24.1177 3.44998 24.1252 3.51851 24.1535C3.58703 24.1819 3.6456 24.23 3.6868 24.2917C3.72801 24.3533 3.75 24.4258 3.75 24.5C3.74989 24.5994 3.71034 24.6947 3.64004 24.765C3.56974 24.8353 3.47442 24.8749 3.375 24.875Z" fill="url(#paint0_linear)"/>
<path d="M17.625 23.375C17.4025 23.375 17.185 23.441 17 23.5646C16.8149 23.6882 16.6708 23.8639 16.5856 24.0695C16.5005 24.2751 16.4782 24.5013 16.5216 24.7195C16.565 24.9377 16.6721 25.1382 16.8295 25.2955C16.9868 25.4528 17.1873 25.56 17.4055 25.6034C17.6237 25.6468 17.8499 25.6245 18.0555 25.5394C18.2611 25.4542 18.4368 25.31 18.5604 25.125C18.684 24.94 18.75 24.7225 18.75 24.5C18.7496 24.2017 18.631 23.9158 18.4201 23.7049C18.2092 23.494 17.9232 23.3753 17.625 23.375ZM17.625 24.875C17.5508 24.875 17.4783 24.853 17.4166 24.8118C17.355 24.7706 17.3069 24.712 17.2785 24.6435C17.2501 24.575 17.2427 24.4996 17.2572 24.4268C17.2716 24.3541 17.3074 24.2873 17.3598 24.2348C17.4123 24.1824 17.4791 24.1467 17.5518 24.1322C17.6246 24.1177 17.7 24.1252 17.7685 24.1535C17.837 24.1819 17.8956 24.23 17.9368 24.2917C17.978 24.3533 18 24.4258 18 24.5C17.9999 24.5994 17.9603 24.6947 17.89 24.765C17.8197 24.8353 17.7244 24.8749 17.625 24.875Z" fill="url(#paint1_linear)"/>
<path d="M20.25 24.5C20.25 24.1515 20.1806 23.8065 20.0459 23.4851C19.9111 23.1638 19.7138 22.8724 19.4653 22.6281C19.2167 22.3838 18.9221 22.1914 18.5985 22.0622C18.2748 21.9329 17.9287 21.8694 17.5803 21.8754C16.1575 21.8992 15 23.0931 15 24.537V25.7968C13.9727 25.5172 12.4745 25.25 10.5 25.25C8.52547 25.25 7.02725 25.5172 5.99998 25.7968V24.5C5.99999 24.1467 5.92867 23.797 5.7903 23.472C5.65194 23.1469 5.44938 22.8531 5.19476 22.6082C4.94013 22.3632 4.63869 22.1722 4.30849 22.0466C3.97828 21.921 3.62611 21.8633 3.27308 21.877C2.61335 21.9048 1.98812 22.1793 1.52121 22.6462C1.0543 23.1131 0.779757 23.7384 0.751957 24.3981C0.726928 25.0464 0.942753 25.6811 1.35784 26.1797C1.77292 26.6784 2.35788 27.0057 2.99999 27.0987V28.625C3.00043 29.0227 3.15861 29.404 3.43982 29.6852C3.72103 29.9664 4.1023 30.1246 4.49999 30.125V31.25C4.49999 31.3495 4.53949 31.4448 4.60982 31.5152C4.68015 31.5855 4.77553 31.625 4.87498 31.625H5.99998C6.06962 31.625 6.13788 31.6056 6.19712 31.569C6.25636 31.5324 6.30423 31.48 6.33537 31.4177L6.98173 30.125H14.0182L14.6646 31.4177C14.6957 31.48 14.7436 31.5324 14.8028 31.569C14.8621 31.6056 14.9303 31.625 15 31.625H16.125C16.2244 31.625 16.3198 31.5855 16.3901 31.5152C16.4605 31.4448 16.5 31.3495 16.5 31.25V30.125C16.8977 30.1246 17.2789 29.9664 17.5601 29.6852C17.8413 29.404 17.9995 29.0227 18 28.625V27.0983C18.6244 27.0073 19.1953 26.6948 19.6084 26.2177C20.0215 25.7407 20.2492 25.131 20.25 24.5ZM5.76823 30.875H5.24998V30.125H6.14323L5.76823 30.875ZM15.75 30.875H15.2317L14.8567 30.125H15.75V30.875ZM17.625 26.375C17.5255 26.375 17.4301 26.4145 17.3598 26.4848C17.2895 26.5552 17.25 26.6505 17.25 26.75V28.625C17.2497 28.8238 17.1706 29.0145 17.03 29.1551C16.8894 29.2957 16.6988 29.3748 16.5 29.375H4.49999C4.30115 29.3748 4.11052 29.2957 3.96992 29.1551C3.82931 29.0145 3.75022 28.8238 3.74999 28.625V26.75C3.74999 26.6505 3.71048 26.5552 3.64015 26.4848C3.56982 26.4145 3.47444 26.375 3.37499 26.375C3.12258 26.375 2.87276 26.324 2.64052 26.2252C2.40828 26.1263 2.19839 25.9816 2.02344 25.7996C1.84848 25.6177 1.71207 25.4023 1.62236 25.1664C1.53266 24.9304 1.49151 24.6788 1.50139 24.4266C1.52126 23.9556 1.71728 23.5092 2.05064 23.1758C2.38399 22.8425 2.83038 22.6465 3.30139 22.6266C3.55361 22.6167 3.80523 22.6578 4.04117 22.7475C4.27711 22.8372 4.49252 22.9736 4.67448 23.1485C4.85643 23.3234 5.0012 23.5333 5.10009 23.7656C5.19898 23.9978 5.24996 24.2476 5.24998 24.5V26.0281C4.65884 26.2344 4.3482 26.4051 4.31614 26.4231L4.68303 27.0773C4.70239 27.0665 6.66528 26 10.5 26C14.3347 26 16.2976 27.0665 16.3161 27.0769L16.6838 26.4231C16.6518 26.4051 16.3411 26.2342 15.75 26.0281V24.537C15.75 23.4999 16.5767 22.6423 17.5928 22.6253C17.8403 22.621 18.0863 22.6658 18.3165 22.7571C18.5466 22.8484 18.7564 22.9843 18.9338 23.1571C19.1111 23.3299 19.2525 23.5361 19.3497 23.7639C19.4469 23.9916 19.498 24.2363 19.5002 24.4839C19.5023 24.7315 19.4554 24.9771 19.3621 25.2064C19.2688 25.4358 19.131 25.6444 18.9567 25.8202C18.7823 25.996 18.5749 26.1356 18.3463 26.2308C18.1177 26.326 17.8726 26.375 17.625 26.375Z" fill="url(#paint2_linear)"/>
<path d="M3.75 19.25C3.75024 19.0512 3.82933 18.8605 3.96993 18.7199C4.11053 18.5793 4.30116 18.5002 4.5 18.5H16.5C16.6988 18.5002 16.8895 18.5793 17.0301 18.7199C17.1707 18.8605 17.2498 19.0512 17.25 19.25V21.125H18V19.25C17.9996 18.8523 17.8414 18.471 17.5602 18.1898C17.279 17.9086 16.8977 17.7504 16.5 17.75H4.5C4.10231 17.7504 3.72104 17.9086 3.43983 18.1898C3.15863 18.471 3.00045 18.8523 3 19.25V21.125H3.75V19.25Z" fill="url(#paint3_linear)"/>
<path d="M8.25 20H9V20.75H8.25V20Z" fill="url(#paint4_linear)"/>
<path d="M10.125 21.875H10.875V22.625H10.125V21.875Z" fill="url(#paint5_linear)"/>
<path d="M6.375 21.875H7.125V22.625H6.375V21.875Z" fill="url(#paint6_linear)"/>
<path d="M8.25 23.75H9V24.5H8.25V23.75Z" fill="url(#paint7_linear)"/>
<path d="M12 20H12.75V20.75H12V20Z" fill="url(#paint8_linear)"/>
<path d="M13.875 21.875H14.625V22.625H13.875V21.875Z" fill="url(#paint9_linear)"/>
<path d="M12 23.75H12.75V24.5H12V23.75Z" fill="url(#paint10_linear)"/>
<path d="M21.75 8.375H11.25C10.8523 8.37545 10.471 8.53363 10.1898 8.81483C9.90863 9.09604 9.75045 9.47731 9.75 9.875V10.25H10.5V9.875C10.5002 9.67616 10.5793 9.48553 10.7199 9.34493C10.8605 9.20433 11.0512 9.12524 11.25 9.125H16.125V17H16.875V9.125H21.75C21.9488 9.12524 22.1395 9.20433 22.2801 9.34493C22.4207 9.48553 22.4998 9.67616 22.5 9.875V28.625C22.4998 28.8238 22.4207 29.0145 22.2801 29.1551C22.1395 29.2957 21.9488 29.3748 21.75 29.375H18.375V30.125H19.2682L19.9146 31.4177C19.9458 31.48 19.9936 31.5324 20.0529 31.569C20.1121 31.6056 20.1804 31.625 20.25 31.625H21.375C21.4745 31.625 21.5698 31.5855 21.6402 31.5152C21.7105 31.4448 21.75 31.3495 21.75 31.25V30.125C22.1477 30.1246 22.529 29.9664 22.8102 29.6852C23.0914 29.404 23.2496 29.0227 23.25 28.625V9.875C23.2496 9.47731 23.0914 9.09604 22.8102 8.81483C22.529 8.53363 22.1477 8.37545 21.75 8.375ZM21 30.875H20.4818L20.1068 30.125H21V30.875Z" fill="url(#paint11_linear)"/>
<path d="M3.37499 16.25H6.74999V17H7.49999V16.25H10.875C10.9269 16.25 10.9782 16.2392 11.0257 16.2184C11.0732 16.1975 11.1158 16.1671 11.1509 16.1289C11.1861 16.0907 11.2129 16.0457 11.2297 15.9966C11.2465 15.9475 11.253 15.8955 11.2487 15.8438L10.8737 11.3438C10.8659 11.2501 10.8231 11.1627 10.7539 11.099C10.6847 11.0354 10.594 11 10.5 11H7.49999V10.25H6.74999V11H3.74999C3.65593 11 3.56531 11.0354 3.49609 11.099C3.42687 11.1627 3.38412 11.2501 3.3763 11.3438L3.0013 15.8438C2.99699 15.8955 3.00345 15.9475 3.02027 15.9966C3.03709 16.0457 3.06391 16.0907 3.09903 16.1289C3.13415 16.1671 3.17681 16.1975 3.22431 16.2184C3.27181 16.2392 3.32311 16.25 3.37499 16.25ZM4.09503 11.75H10.1549L10.4675 15.5H3.78252L4.09503 11.75Z" fill="url(#paint12_linear)"/>
<circle cx="21" cy="8" r="7.75" stroke="url(#paint13_linear)" stroke-width="0.5"/>
<defs>
<linearGradient id="paint0_linear" x1="4.5" y1="23.375" x2="2.20622" y2="25.2912" gradientUnits="userSpaceOnUse">
<stop stop-color="#C89A4B"/>
<stop offset="0.505208" stop-color="#F7E6AE"/>
<stop offset="1" stop-color="#C89A4B"/>
</linearGradient>
<linearGradient id="paint1_linear" x1="18.75" y1="23.375" x2="16.4562" y2="25.2912" gradientUnits="userSpaceOnUse">
<stop stop-color="#C89A4B"/>
<stop offset="0.505208" stop-color="#F7E6AE"/>
<stop offset="1" stop-color="#C89A4B"/>
</linearGradient>
<linearGradient id="paint2_linear" x1="20.25" y1="21.875" x2="11.3479" y2="36.7487" gradientUnits="userSpaceOnUse">
<stop stop-color="#C89A4B"/>
<stop offset="0.505208" stop-color="#F7E6AE"/>
<stop offset="1" stop-color="#C89A4B"/>
</linearGradient>
<linearGradient id="paint3_linear" x1="18" y1="17.75" x2="16.244" y2="24.2699" gradientUnits="userSpaceOnUse">
<stop stop-color="#C89A4B"/>
<stop offset="0.505208" stop-color="#F7E6AE"/>
<stop offset="1" stop-color="#C89A4B"/>
</linearGradient>
<linearGradient id="paint4_linear" x1="9" y1="20" x2="8.23541" y2="20.6387" gradientUnits="userSpaceOnUse">
<stop stop-color="#C89A4B"/>
<stop offset="0.505208" stop-color="#F7E6AE"/>
<stop offset="1" stop-color="#C89A4B"/>
</linearGradient>
<linearGradient id="paint5_linear" x1="10.875" y1="21.875" x2="10.1104" y2="22.5137" gradientUnits="userSpaceOnUse">
<stop stop-color="#C89A4B"/>
<stop offset="0.505208" stop-color="#F7E6AE"/>
<stop offset="1" stop-color="#C89A4B"/>
</linearGradient>
<linearGradient id="paint6_linear" x1="7.125" y1="21.875" x2="6.36041" y2="22.5137" gradientUnits="userSpaceOnUse">
<stop stop-color="#C89A4B"/>
<stop offset="0.505208" stop-color="#F7E6AE"/>
<stop offset="1" stop-color="#C89A4B"/>
</linearGradient>
<linearGradient id="paint7_linear" x1="9" y1="23.75" x2="8.23541" y2="24.3887" gradientUnits="userSpaceOnUse">
<stop stop-color="#C89A4B"/>
<stop offset="0.505208" stop-color="#F7E6AE"/>
<stop offset="1" stop-color="#C89A4B"/>
</linearGradient>
<linearGradient id="paint8_linear" x1="12.75" y1="20" x2="11.9854" y2="20.6387" gradientUnits="userSpaceOnUse">
<stop stop-color="#C89A4B"/>
<stop offset="0.505208" stop-color="#F7E6AE"/>
<stop offset="1" stop-color="#C89A4B"/>
</linearGradient>
<linearGradient id="paint9_linear" x1="14.625" y1="21.875" x2="13.8604" y2="22.5137" gradientUnits="userSpaceOnUse">
<stop stop-color="#C89A4B"/>
<stop offset="0.505208" stop-color="#F7E6AE"/>
<stop offset="1" stop-color="#C89A4B"/>
</linearGradient>
<linearGradient id="paint10_linear" x1="12.75" y1="23.75" x2="11.9854" y2="24.3887" gradientUnits="userSpaceOnUse">
<stop stop-color="#C89A4B"/>
<stop offset="0.505208" stop-color="#F7E6AE"/>
<stop offset="1" stop-color="#C89A4B"/>
</linearGradient>
<linearGradient id="paint11_linear" x1="23.25" y1="8.375" x2="4.33345" y2="17.5509" gradientUnits="userSpaceOnUse">
<stop stop-color="#C89A4B"/>
<stop offset="0.505208" stop-color="#F7E6AE"/>
<stop offset="1" stop-color="#C89A4B"/>
</linearGradient>
<linearGradient id="paint12_linear" x1="11.25" y1="10.25" x2="4.25858" y2="17.3885" gradientUnits="userSpaceOnUse">
<stop stop-color="#C89A4B"/>
<stop offset="0.505208" stop-color="#F7E6AE"/>
<stop offset="1" stop-color="#C89A4B"/>
</linearGradient>
<linearGradient id="paint13_linear" x1="29" y1="0" x2="12.6887" y2="13.6265" gradientUnits="userSpaceOnUse">
<stop stop-color="#F7E6AE" stop-opacity="0"/>
<stop offset="1" stop-color="#C89A4B"/>
</linearGradient>
</defs>
</svg>
