<svg width="16" height="16" viewBox="0 0 16 16" fill="none" xmlns="http://www.w3.org/2000/svg">
<g clip-path="url(#clip0)">
<path d="M11.7019 10.521L11.7019 10.521L11.7064 10.5225C12.6695 10.8408 13.6844 11.0022 14.7162 11.0022C15.1479 11.0022 15.5 11.3543 15.5 11.786V14.7161C15.5 15.1479 15.1479 15.5 14.7162 15.5C6.87772 15.5 0.5 9.12231 0.5 1.28387C0.5 0.852101 0.852101 0.5 1.28387 0.5H4.22221C4.65398 0.5 5.00607 0.852089 5.00604 1.28389V1.28392C5.00604 2.31504 5.16755 3.32803 5.48612 4.29437C5.57643 4.58585 5.49956 4.88957 5.29077 5.09808L5.26576 5.12305L5.24452 5.15129L3.9264 6.90346L3.73528 7.15751L3.88426 7.43836C5.02986 9.59784 6.38724 10.9542 8.56055 12.1143L8.84232 12.2647L9.09725 12.0723L10.8963 10.7142L10.9267 10.6912L10.9533 10.6639C11.0072 10.6086 11.1179 10.542 11.2732 10.5072C11.4251 10.4732 11.5789 10.479 11.7019 10.521Z" stroke="white"/>
</g>
<defs>
<clipPath id="clip0">
<rect width="16" height="16" fill="white"/>
</clipPath>
</defs>
</svg>
