<svg width="1261" height="15" viewBox="0 0 1261 15" fill="none" xmlns="http://www.w3.org/2000/svg">
<path d="M28.98 6.96004C27.67 6.96004 26.37 6.58004 25.32 5.78004C24.55 5.19004 23.86 4.39004 23.51 3.30004C22.62 4.74004 21.28 5.66004 19.92 6.23004C17.83 5.29004 15.33 3.58004 14.33 0.540039C12.28 3.90004 8.69 5.59004 5.63 6.44004C2.56 7.28004 0 7.28004 0 7.28004C0 7.28004 2.56 7.28004 5.64 8.13004C8.7 8.96004 12.29 10.65 14.34 14.03C15.33 10.99 17.84 9.28004 19.93 8.32004C21.29 8.91004 22.63 9.83004 23.52 11.27C23.78 10.46 24.23 9.80004 24.76 9.28004C25.89 8.17004 27.44 7.62004 29.02 7.62004L28.98 6.96004Z" fill="url(#paint0_linear)"/>
<path d="M24 6V7.49407V9H625V7.49407V6H24Z" fill="url(#paint1_linear)"/>
<path d="M1254.38 6.44004C1251.32 5.59004 1247.73 3.91004 1245.68 0.540039C1244.69 3.58004 1242.18 5.29004 1240.09 6.23004C1238.73 5.66004 1237.39 4.74004 1236.5 3.30004C1236.15 4.39004 1235.46 5.19004 1234.69 5.78004C1233.65 6.58004 1232.34 6.96004 1231.03 6.96004L1231 7.60004C1232.58 7.60004 1234.13 8.15004 1235.26 9.26004C1235.78 9.78004 1236.23 10.44 1236.5 11.25C1237.39 9.81004 1238.73 8.89004 1240.09 8.30004C1242.18 9.25004 1244.68 10.97 1245.68 14.01C1247.73 10.63 1251.32 8.95004 1254.38 8.11004C1257.46 7.26004 1260.02 7.26004 1260.02 7.26004C1260.02 7.26004 1257.46 7.28004 1254.38 6.44004Z" fill="url(#paint2_linear)"/>
<path d="M1236 6H635V9H1236V6Z" fill="url(#paint3_linear)"/>
<path d="M629.86 4.33008C628.22 4.33008 626.9 5.65008 626.9 7.28008C626.9 8.91008 628.23 10.2301 629.86 10.2301C631.5 10.2301 632.82 8.91008 632.82 7.28008C632.83 5.65008 631.5 4.33008 629.86 4.33008Z" fill="url(#paint4_linear)"/>
<path d="M629.86 0C625.83 0 622.56 3.27 622.56 7.28C622.56 11.3 625.84 14.56 629.86 14.56C633.88 14.56 637.16 11.29 637.16 7.28C637.16 3.27 633.89 0 629.86 0ZM629.86 12.04C627.22 12.04 625.09 9.91 625.09 7.28C625.09 4.65 627.23 2.52 629.86 2.52C632.5 2.52 634.63 4.65 634.63 7.28C634.63 9.91 632.5 12.04 629.86 12.04Z" fill="url(#paint5_linear)"/>
<defs>
<linearGradient id="paint0_linear" x1="29.02" y1="0.540039" x2="17.1441" y2="21.8827" gradientUnits="userSpaceOnUse">
<stop stop-color="#C89A4B"/>
<stop offset="0.505208" stop-color="#F7E6AE"/>
<stop offset="1" stop-color="#C89A4B"/>
</linearGradient>
<linearGradient id="paint1_linear" x1="625" y1="6" x2="624.963" y2="12.2157" gradientUnits="userSpaceOnUse">
<stop stop-color="#C89A4B"/>
<stop offset="0.505208" stop-color="#F7E6AE"/>
<stop offset="1" stop-color="#C89A4B"/>
</linearGradient>
<linearGradient id="paint2_linear" x1="1260.02" y1="0.540039" x2="1248.17" y2="21.866" gradientUnits="userSpaceOnUse">
<stop stop-color="#C89A4B"/>
<stop offset="0.505208" stop-color="#F7E6AE"/>
<stop offset="1" stop-color="#C89A4B"/>
</linearGradient>
<linearGradient id="paint3_linear" x1="1236" y1="6" x2="1235.96" y2="12.2157" gradientUnits="userSpaceOnUse">
<stop stop-color="#C89A4B"/>
<stop offset="0.505208" stop-color="#F7E6AE"/>
<stop offset="1" stop-color="#C89A4B"/>
</linearGradient>
<linearGradient id="paint4_linear" x1="632.82" y1="4.33008" x2="626.802" y2="9.37494" gradientUnits="userSpaceOnUse">
<stop stop-color="#C89A4B"/>
<stop offset="0.505208" stop-color="#F7E6AE"/>
<stop offset="1" stop-color="#C89A4B"/>
</linearGradient>
<linearGradient id="paint5_linear" x1="637.16" y1="0" x2="622.31" y2="12.4402" gradientUnits="userSpaceOnUse">
<stop stop-color="#C89A4B"/>
<stop offset="0.505208" stop-color="#F7E6AE"/>
<stop offset="1" stop-color="#C89A4B"/>
</linearGradient>
</defs>
</svg>
