<svg width="30" height="30" viewBox="0 0 30 30" fill="none" xmlns="http://www.w3.org/2000/svg">
<g clip-path="url(#clip0)">
<path d="M22.7213 8.78802C22.5014 8.51913 22.1721 8.37109 21.7939 8.37109C21.5883 8.37109 21.3705 8.41435 21.1467 8.49991L5.91 14.3162C5.10141 14.6248 4.99251 15.0879 4.99951 15.3364C5.00651 15.585 5.14151 16.0412 5.96631 16.3036C5.97125 16.3051 5.97619 16.3067 5.98114 16.308L9.14163 17.2125L10.8508 22.1C11.0839 22.7663 11.607 23.1803 12.2162 23.1803C12.6003 23.1803 12.9781 23.0193 13.3087 22.715L15.2636 20.915L18.0991 23.1981C18.0993 23.1984 18.0997 23.1985 18.1 23.1988L18.1269 23.2205C18.1294 23.2224 18.132 23.2245 18.1345 23.2264C18.4497 23.4708 18.7937 23.5999 19.1297 23.6001H19.1298C19.7864 23.6001 20.3092 23.1141 20.4615 22.362L22.958 10.0348C23.0583 9.54004 22.9742 9.09729 22.7213 8.78802ZM10.1989 17.0407L16.2965 13.9256L12.4997 17.96C12.4375 18.026 12.3934 18.1069 12.3717 18.1949L11.6396 21.1604L10.1989 17.0407ZM12.5942 21.9391C12.569 21.9623 12.5435 21.983 12.5181 22.0021L13.1974 19.2511L14.4329 20.2461L12.5942 21.9391ZM21.9244 9.82541L19.4279 22.1528C19.4038 22.2707 19.3271 22.5452 19.1297 22.5452C19.0322 22.5452 18.9097 22.4921 18.7843 22.3956L15.5714 19.8085C15.571 19.8081 15.5704 19.8077 15.5699 19.8074L13.6581 18.268L19.1487 12.4338C19.3244 12.2471 19.3404 11.961 19.1864 11.7558C19.0323 11.5507 18.7532 11.4861 18.5248 11.6029L9.49429 16.2163L6.29081 15.2998L21.5228 9.48524C21.6515 9.43608 21.7413 9.42578 21.7939 9.42578C21.8262 9.42578 21.8836 9.42963 21.9049 9.45586C21.9329 9.49005 21.9686 9.60664 21.9244 9.82541Z" fill="url(#paint0_linear)"/>
</g>
<circle opacity="0.7" cx="15" cy="15" r="14.5" stroke="url(#paint1_linear)"/>
<defs>
<linearGradient id="paint0_linear" x1="22.9992" y1="8.37109" x2="7.22352" y2="23.9482" gradientUnits="userSpaceOnUse">
<stop stop-color="#C89A4B"/>
<stop offset="0.505208" stop-color="#F7E6AE"/>
<stop offset="1" stop-color="#C89A4B"/>
</linearGradient>
<linearGradient id="paint1_linear" x1="30" y1="0" x2="-0.583636" y2="25.5496" gradientUnits="userSpaceOnUse">
<stop stop-color="#F7E6AE" stop-opacity="0"/>
<stop offset="1" stop-color="#C89A4B"/>
</linearGradient>
<clipPath id="clip0">
<rect width="18" height="18" fill="white" transform="translate(5 7)"/>
</clipPath>
</defs>
</svg>
