<svg width="30" height="30" viewBox="0 0 30 30" fill="none" xmlns="http://www.w3.org/2000/svg">
<path d="M23.2436 13.353C23.2437 11.6625 22.5811 10.0689 21.378 8.86575C20.1748 7.66261 18.5813 7 16.8906 7H13.1264C13.1263 7 13.1263 7 13.1263 7C11.4359 7 9.84219 7.66261 8.63919 8.86562C7.43605 10.0689 6.77344 11.6625 6.77344 13.353V16.3119C6.77344 17.6212 7.17279 18.8805 7.92838 19.954C8.59497 20.901 9.49146 21.6408 10.5367 22.1098V23.8094C10.5367 24.6881 11.0287 25 11.45 25C11.7511 25 12.0521 24.8514 12.3452 24.5585L14.2386 22.665L16.8907 22.6649C18.5813 22.6649 20.1748 22.0022 21.378 20.7992C22.5811 19.5961 23.2437 18.0024 23.2437 16.3119L23.2436 13.353ZM16.8907 21.6102L14.0203 21.6103C13.8804 21.6103 13.7463 21.6658 13.6474 21.7647L11.5995 23.8127C11.5968 23.8154 11.5941 23.818 11.5914 23.8206C11.5914 23.8169 11.5914 23.8131 11.5914 23.8094V21.7578C11.5914 21.539 11.4564 21.3431 11.252 21.2651C9.20416 20.4837 7.82826 18.4931 7.82826 16.3119V13.353C7.82826 11.9441 8.38115 10.6153 9.38503 9.61131C10.3889 8.60757 11.7176 8.05469 13.1264 8.05469H16.8906C18.2995 8.05469 19.6283 8.60757 20.6321 9.61145C21.6362 10.6155 22.189 11.9443 22.1889 13.353L22.189 16.3119C22.1889 19.2334 19.8121 21.6102 16.8907 21.6102Z" fill="url(#paint0_linear)"/>
<path d="M16.4107 15.6251C16.2048 15.4191 15.871 15.4191 15.665 15.6251L15.239 16.0509L13.5883 14.4004L14.0143 13.9745C14.1132 13.8756 14.1688 13.7415 14.1688 13.6015C14.1688 13.4617 14.1132 13.3276 14.0143 13.2287L12.0172 11.2316C11.9184 11.1328 11.7843 11.0771 11.6444 11.0771C11.5046 11.0771 11.3704 11.1328 11.2715 11.2316L9.87353 12.6297C9.11753 13.3857 9.11753 14.616 9.87367 15.3724L14.267 19.766C14.6323 20.1311 15.1194 20.3322 15.6383 20.3322C16.1574 20.3322 16.6445 20.1311 17.0098 19.766L18.4078 18.3681C18.5067 18.2691 18.5623 18.135 18.5623 17.9951C18.5623 17.8553 18.5067 17.7211 18.4078 17.6223L16.4107 15.6251ZM16.264 19.02C16.098 19.186 15.8758 19.2775 15.6383 19.2775C15.4009 19.2775 15.1787 19.186 15.0127 19.02L10.6195 14.6266C10.2745 14.2816 10.2744 13.7202 10.6194 13.3754L11.6444 12.3502L12.8956 13.6015L12.4696 14.0274C12.3707 14.1263 12.3151 14.2604 12.3151 14.4002C12.3151 14.5402 12.3707 14.6742 12.4696 14.7732L14.866 17.1696C15.072 17.3755 15.4058 17.3756 15.6118 17.1696L16.0378 16.7438L17.289 17.995L16.264 19.02Z" fill="url(#paint1_linear)"/>
<path d="M15.1366 9.33301C14.8453 9.33301 14.6093 9.56908 14.6093 9.86035C14.6093 10.1515 14.8453 10.3877 15.1366 10.3877C16.3434 10.3877 17.4782 10.8576 18.3316 11.7111C19.1851 12.5645 19.655 13.6991 19.655 14.9061C19.655 15.1972 19.8911 15.4334 20.1823 15.4334C20.4735 15.4334 20.7097 15.1974 20.7097 14.9061C20.7097 13.4174 20.13 12.0179 19.0774 10.9653C18.0248 9.91267 16.6252 9.33301 15.1366 9.33301Z" fill="url(#paint2_linear)"/>
<path d="M17.3957 14.9059C17.3957 15.197 17.6319 15.4332 17.923 15.4332C18.2143 15.4332 18.4503 15.197 18.4503 14.9059C18.4503 13.0787 16.9638 11.5923 15.1366 11.5923C14.8453 11.5923 14.6093 11.8284 14.6093 12.1196C14.6093 12.4109 14.8453 12.647 15.1366 12.647C16.3823 12.647 17.3957 13.6603 17.3957 14.9059Z" fill="url(#paint3_linear)"/>
<circle opacity="0.7" cx="15" cy="15" r="14.5" stroke="url(#paint4_linear)"/>
<defs>
<linearGradient id="paint0_linear" x1="23.2437" y1="7" x2="5.24929" y2="20.755" gradientUnits="userSpaceOnUse">
<stop stop-color="#C89A4B"/>
<stop offset="0.505208" stop-color="#F7E6AE"/>
<stop offset="1" stop-color="#C89A4B"/>
</linearGradient>
<linearGradient id="paint1_linear" x1="18.5623" y1="11.0771" x2="9.12713" y2="18.96" gradientUnits="userSpaceOnUse">
<stop stop-color="#C89A4B"/>
<stop offset="0.505208" stop-color="#F7E6AE"/>
<stop offset="1" stop-color="#C89A4B"/>
</linearGradient>
<linearGradient id="paint2_linear" x1="20.7097" y1="9.33301" x2="14.4906" y2="14.5285" gradientUnits="userSpaceOnUse">
<stop stop-color="#C89A4B"/>
<stop offset="0.505208" stop-color="#F7E6AE"/>
<stop offset="1" stop-color="#C89A4B"/>
</linearGradient>
<linearGradient id="paint3_linear" x1="18.4503" y1="11.5923" x2="14.5346" y2="14.8636" gradientUnits="userSpaceOnUse">
<stop stop-color="#C89A4B"/>
<stop offset="0.505208" stop-color="#F7E6AE"/>
<stop offset="1" stop-color="#C89A4B"/>
</linearGradient>
<linearGradient id="paint4_linear" x1="30" y1="0" x2="-0.583636" y2="25.5496" gradientUnits="userSpaceOnUse">
<stop stop-color="#F7E6AE" stop-opacity="0"/>
<stop offset="1" stop-color="#C89A4B"/>
</linearGradient>
</defs>
</svg>
