<svg width="30" height="30" viewBox="0 0 30 30" fill="none" xmlns="http://www.w3.org/2000/svg">
<path d="M20.3431 16.277C20.0812 15.9305 20.1561 15.7764 20.3431 15.4667C20.3465 15.4631 22.5086 12.3333 22.7313 11.2719L22.7327 11.2712C22.8434 10.8844 22.7327 10.6001 22.1974 10.6001H20.4261C19.9752 10.6001 19.7673 10.8441 19.6559 11.117C19.6559 11.117 18.7541 13.3785 17.4783 14.8444C17.0666 15.2679 16.8762 15.4037 16.6514 15.4037C16.5407 15.4037 16.3686 15.2679 16.3686 14.8811V11.2712C16.3686 10.8073 16.2423 10.6001 15.8691 10.6001H13.0839C12.8011 10.6001 12.633 10.8165 12.633 11.018C12.633 11.4579 13.2709 11.559 13.337 12.7965V15.4815C13.337 16.0698 13.2351 16.178 13.009 16.178C12.4069 16.178 10.9454 13.9074 10.0794 11.3087C9.90455 10.8045 9.73377 10.6008 9.27948 10.6008H7.50755C7.00195 10.6008 6.90002 10.8448 6.90002 11.1177C6.90002 11.6 7.50215 13.9979 9.70002 17.1659C11.1648 19.3284 13.2277 20.5001 15.1043 20.5001C16.2322 20.5001 16.3699 20.2399 16.3699 19.7922C16.3699 17.726 16.268 17.5308 16.833 17.5308C17.0949 17.5308 17.5458 17.6666 18.5989 18.7096C19.8024 19.9464 20.0002 20.5001 20.6739 20.5001H22.4451C22.9501 20.5001 23.2059 20.2399 23.0587 19.7265C22.7219 18.6467 20.4457 16.4255 20.3431 16.277V16.277Z" stroke="url(#paint0_linear)"/>
<circle opacity="0.7" cx="15" cy="15" r="14.5" stroke="url(#paint1_linear)"/>
<defs>
<linearGradient id="paint0_linear" x1="23.1" y1="10.6001" x2="13.3254" y2="23.9623" gradientUnits="userSpaceOnUse">
<stop stop-color="#C89A4B"/>
<stop offset="0.505208" stop-color="#F7E6AE"/>
<stop offset="1" stop-color="#C89A4B"/>
</linearGradient>
<linearGradient id="paint1_linear" x1="30" y1="0" x2="-0.583636" y2="25.5496" gradientUnits="userSpaceOnUse">
<stop stop-color="#F7E6AE" stop-opacity="0"/>
<stop offset="1" stop-color="#C89A4B"/>
</linearGradient>
</defs>
</svg>
