<svg width="30" height="30" viewBox="0 0 30 30" fill="none" xmlns="http://www.w3.org/2000/svg">
<g clip-path="url(#clip0)">
<path d="M21.4433 8.55666C19.7945 6.90788 17.6029 6 15.271 6C15.2709 6 15.2703 6 15.2702 6C14.1169 6.00014 12.993 6.22343 11.9299 6.66385C10.8667 7.10426 9.91423 7.74106 9.09863 8.55666C7.45 10.2053 6.54212 12.3973 6.54212 14.7289C6.54212 16.1194 6.87761 17.5012 7.51331 18.7323L6.04608 22.9239C5.94267 23.2196 6.01587 23.5409 6.23752 23.7624C6.39256 23.9176 6.59664 24 6.80647 24C6.89643 24 6.98734 23.9849 7.07605 23.9539L11.2676 22.4868C12.4988 23.1225 13.8806 23.458 15.271 23.458C17.6026 23.458 19.7945 22.5499 21.4433 20.9013C23.0919 19.2527 23.9999 17.0606 23.9999 14.729C23.9999 12.3973 23.0921 10.2053 21.4433 8.55666ZM20.6968 20.1548C19.2475 21.6042 17.3205 22.4022 15.271 22.4022C14.0172 22.4022 12.7716 22.0921 11.6689 21.5051C11.4689 21.3988 11.2326 21.3806 11.0204 21.4549L7.21228 22.7877L8.5452 18.9795C8.61949 18.7671 8.60109 18.5307 8.4948 18.3309C7.90799 17.2284 7.59777 15.9829 7.59777 14.7289C7.59777 12.6794 8.39592 10.7524 9.84516 9.30318C11.2943 7.85408 13.221 7.05592 15.2703 7.05565H15.271C17.3207 7.05565 19.2475 7.85381 20.6968 9.30318C22.1461 10.7524 22.9443 12.6793 22.9443 14.7289C22.9443 16.7785 22.1461 18.7056 20.6968 20.1548Z" fill="url(#paint0_linear)"/>
<path d="M18.5151 15.5084C18.1136 15.1069 17.4602 15.1069 17.0586 15.5084L16.6194 15.9476C15.5289 15.3534 14.6464 14.4709 14.0521 13.3804L14.4912 12.9412C14.8929 12.5396 14.8929 11.8862 14.4912 11.4847L13.3077 10.3012C12.9062 9.89961 12.2528 9.89961 11.8512 10.3012L10.9045 11.2479C10.3622 11.7902 10.3351 12.7225 10.8283 13.8732C11.2565 14.8723 12.0401 15.9704 13.0347 16.9651C14.0294 17.9597 15.1275 18.7433 16.1266 19.1715C16.6733 19.4058 17.1705 19.5227 17.6002 19.5227C18.075 19.5227 18.4672 19.38 18.7519 19.0953L19.6986 18.1484V18.1486C19.8932 17.954 20.0003 17.6954 20.0003 17.4203C20.0003 17.1451 19.8932 16.8865 19.6986 16.692L18.5151 15.5084ZM18.0054 18.3488C17.8506 18.5036 17.3746 18.5578 16.5425 18.2013C15.6639 17.8247 14.6832 17.1205 13.7813 16.2185C12.8793 15.3166 12.1752 14.336 11.7986 13.4574C11.442 12.6253 11.4962 12.1492 11.651 11.9944L12.5796 11.0658L13.7266 12.2129L13.1769 12.7628C12.9283 13.0114 12.8683 13.3883 13.0277 13.7009C13.7505 15.1181 14.8817 16.2493 16.2989 16.9721C16.6116 17.1315 16.9886 17.0716 17.2371 16.8229L17.7869 16.2732L18.934 17.4203L18.0054 18.3488Z" fill="url(#paint1_linear)"/>
</g>
<circle opacity="0.7" cx="15" cy="15" r="14.5" stroke="url(#paint2_linear)"/>
<defs>
<linearGradient id="paint0_linear" x1="23.9999" y1="6" x2="5.64976" y2="21.3298" gradientUnits="userSpaceOnUse">
<stop stop-color="#C89A4B"/>
<stop offset="0.505208" stop-color="#F7E6AE"/>
<stop offset="1" stop-color="#C89A4B"/>
</linearGradient>
<linearGradient id="paint1_linear" x1="20.0003" y1="10" x2="10.2923" y2="18.1106" gradientUnits="userSpaceOnUse">
<stop stop-color="#C89A4B"/>
<stop offset="0.505208" stop-color="#F7E6AE"/>
<stop offset="1" stop-color="#C89A4B"/>
</linearGradient>
<linearGradient id="paint2_linear" x1="30" y1="0" x2="-0.583636" y2="25.5496" gradientUnits="userSpaceOnUse">
<stop stop-color="#F7E6AE" stop-opacity="0"/>
<stop offset="1" stop-color="#C89A4B"/>
</linearGradient>
<clipPath id="clip0">
<rect width="18" height="18" fill="white" transform="translate(6 6)"/>
</clipPath>
</defs>
</svg>
