<svg width="813" height="14" viewBox="0 0 813 14" fill="none" xmlns="http://www.w3.org/2000/svg">
<line x1="4.37114e-08" y1="6.5" x2="789" y2="6.50007" stroke="url(#paint0_linear)"/>
<path d="M806.38 5.9C803.32 5.05 799.73 3.37 797.68 0C796.69 3.04 794.18 4.75 792.09 5.69C790.73 5.12 789.39 4.2 788.5 2.76C788.15 3.85 787.46 4.65 786.69 5.24C785.65 6.04 784.34 6.42 783.03 6.42L783 7.06C784.58 7.06 786.13 7.61 787.26 8.72C787.78 9.24 788.23 9.9 788.5 10.71C789.39 9.27 790.73 8.35 792.09 7.76C794.18 8.71 796.68 10.43 797.68 13.47C799.73 10.09 803.32 8.41 806.38 7.57C809.46 6.72 812.02 6.72 812.02 6.72C812.02 6.72 809.46 6.74 806.38 5.9Z" fill="url(#paint1_linear)"/>
<defs>
<linearGradient id="paint0_linear" x1="789" y1="7.00007" x2="788.997" y2="9.07204" gradientUnits="userSpaceOnUse">
<stop stop-color="#C89A4B"/>
<stop offset="0.505208" stop-color="#F7E6AE"/>
<stop offset="1" stop-color="#C89A4B"/>
</linearGradient>
<linearGradient id="paint1_linear" x1="812.02" y1="0" x2="800.171" y2="21.3259" gradientUnits="userSpaceOnUse">
<stop stop-color="#C89A4B"/>
<stop offset="0.505208" stop-color="#F7E6AE"/>
<stop offset="1" stop-color="#C89A4B"/>
</linearGradient>
</defs>
</svg>
