<svg width="30" height="30" viewBox="0 0 30 30" fill="none" xmlns="http://www.w3.org/2000/svg">
<g clip-path="url(#clip0)">
<path d="M22.3125 8.25H7.68751C6.75696 8.25 6 9.00696 6 9.93751V20.0625C6 20.9931 6.75696 21.75 7.68751 21.75H22.3125C23.243 21.75 24 20.9931 24 20.0625V9.93751C24 9.00696 23.243 8.25 22.3125 8.25ZM22.3125 9.375C22.3889 9.375 22.4616 9.39085 22.5281 9.41854L15 15.9432L7.47188 9.41854C7.53834 9.39089 7.61105 9.375 7.68747 9.375H22.3125ZM22.3125 20.625H7.68751C7.37715 20.625 7.125 20.3729 7.125 20.0625V10.6071L14.6314 17.1127C14.7374 17.2044 14.8687 17.25 15 17.25C15.1313 17.25 15.2626 17.2044 15.3686 17.1127L22.875 10.6071V20.0625C22.875 20.3729 22.6228 20.625 22.3125 20.625Z" fill="url(#paint0_linear)"/>
</g>
<circle opacity="0.7" cx="15" cy="15" r="14.5" stroke="url(#paint1_linear)"/>
<defs>
<linearGradient id="paint0_linear" x1="24" y1="8.25" x2="10.0951" y2="23.7382" gradientUnits="userSpaceOnUse">
<stop stop-color="#C89A4B"/>
<stop offset="0.505208" stop-color="#F7E6AE"/>
<stop offset="1" stop-color="#C89A4B"/>
</linearGradient>
<linearGradient id="paint1_linear" x1="30" y1="0" x2="-0.583636" y2="25.5496" gradientUnits="userSpaceOnUse">
<stop stop-color="#C89A4B"/>
<stop offset="0.505208" stop-color="#F7E6AE"/>
<stop offset="1" stop-color="#C89A4B"/>
</linearGradient>
<clipPath id="clip0">
<rect width="18" height="18" fill="white" transform="translate(6 6)"/>
</clipPath>
</defs>
</svg>
