<svg width="30" height="30" viewBox="0 0 30 30" fill="none" xmlns="http://www.w3.org/2000/svg">
<g clip-path="url(#clip0)">
<path d="M22.7211 8.78802C22.5012 8.51913 22.1719 8.37109 21.7937 8.37109C21.5881 8.37109 21.3703 8.41435 21.1465 8.49991L5.90982 14.3162C5.10122 14.6248 4.99232 15.0879 4.99933 15.3364C5.00633 15.585 5.14132 16.0412 5.96612 16.3036C5.97107 16.3051 5.97601 16.3067 5.98095 16.308L9.14145 17.2125L10.8506 22.1C11.0837 22.7663 11.6068 23.1803 12.216 23.1803C12.6001 23.1803 12.9779 23.0193 13.3086 22.715L15.2634 20.915L18.0989 23.1981C18.0991 23.1984 18.0996 23.1985 18.0998 23.1988L18.1268 23.2205C18.1292 23.2224 18.1318 23.2245 18.1343 23.2264C18.4495 23.4708 18.7935 23.5999 19.1295 23.6001H19.1297C19.7862 23.6001 20.309 23.1141 20.4613 22.362L22.9579 10.0348C23.0581 9.54004 22.9741 9.09729 22.7211 8.78802ZM10.1987 17.0407L16.2963 13.9256L12.4996 17.96C12.4373 18.026 12.3933 18.1069 12.3716 18.1949L11.6395 21.1604L10.1987 17.0407ZM12.594 21.9391C12.5688 21.9623 12.5434 21.983 12.518 22.0021L13.1972 19.2511L14.4327 20.2461L12.594 21.9391ZM21.9242 9.82541L19.4277 22.1528C19.4036 22.2707 19.3269 22.5452 19.1295 22.5452C19.032 22.5452 18.9095 22.4921 18.7841 22.3956L15.5712 19.8085C15.5708 19.8081 15.5702 19.8077 15.5697 19.8074L13.6579 18.268L19.1485 12.4338C19.3243 12.2471 19.3402 11.961 19.1862 11.7558C19.0322 11.5507 18.753 11.4861 18.5246 11.6029L9.49411 16.2163L6.29063 15.2998L21.5226 9.48524C21.6513 9.43608 21.7411 9.42578 21.7937 9.42578C21.826 9.42578 21.8834 9.42963 21.9047 9.45586C21.9327 9.49005 21.9684 9.60664 21.9242 9.82541Z" fill="url(#paint0_linear)"/>
</g>
<circle opacity="0.7" cx="15" cy="15" r="14.5" stroke="url(#paint1_linear)"/>
<defs>
<linearGradient id="paint0_linear" x1="22.9991" y1="8.37109" x2="7.22334" y2="23.9482" gradientUnits="userSpaceOnUse">
<stop stop-color="#C89A4B"/>
<stop offset="0.505208" stop-color="#F7E6AE"/>
<stop offset="1" stop-color="#C89A4B"/>
</linearGradient>
<linearGradient id="paint1_linear" x1="30" y1="0" x2="-0.583636" y2="25.5496" gradientUnits="userSpaceOnUse">
<stop stop-color="#C89A4B"/>
<stop offset="0.505208" stop-color="#F7E6AE"/>
<stop offset="1" stop-color="#C89A4B"/>
</linearGradient>
<clipPath id="clip0">
<rect width="18" height="18" fill="white" transform="translate(5 7)"/>
</clipPath>
</defs>
</svg>
