<svg width="30" height="30" viewBox="0 0 30 30" fill="none" xmlns="http://www.w3.org/2000/svg">
<path d="M23.2436 13.353C23.2437 11.6625 22.5811 10.0689 21.378 8.86575C20.1748 7.66261 18.5813 7 16.8906 7H13.1264C13.1263 7 13.1263 7 13.1263 7C11.4359 7 9.84219 7.66261 8.63919 8.86562C7.43605 10.0689 6.77344 11.6625 6.77344 13.353V16.3119C6.77344 17.6212 7.17279 18.8805 7.92838 19.954C8.59497 20.901 9.49146 21.6408 10.5367 22.1098V23.8094C10.5367 24.6881 11.0287 25 11.45 25C11.7511 25 12.0521 24.8514 12.3452 24.5585L14.2386 22.665L16.8907 22.6649C18.5813 22.6649 20.1748 22.0022 21.378 20.7992C22.5811 19.5961 23.2437 18.0024 23.2437 16.3119L23.2436 13.353ZM16.8907 21.6102L14.0203 21.6103C13.8804 21.6103 13.7463 21.6658 13.6474 21.7647L11.5995 23.8127C11.5968 23.8154 11.5941 23.818 11.5914 23.8206C11.5914 23.8169 11.5914 23.8131 11.5914 23.8094V21.7578C11.5914 21.539 11.4564 21.3431 11.252 21.2651C9.20416 20.4837 7.82826 18.4931 7.82826 16.3119V13.353C7.82826 11.9441 8.38115 10.6153 9.38503 9.61131C10.3889 8.60757 11.7176 8.05469 13.1264 8.05469H16.8906C18.2995 8.05469 19.6283 8.60757 20.6321 9.61145C21.6362 10.6155 22.189 11.9443 22.1889 13.353L22.189 16.3119C22.1889 19.2334 19.8121 21.6102 16.8907 21.6102Z" fill="url(#paint0_linear)"/>
<path d="M16.4108 15.6251C16.2049 15.4191 15.8711 15.4191 15.6651 15.6251L15.2391 16.0509L13.5884 14.4004L14.0144 13.9745C14.1132 13.8756 14.1689 13.7415 14.1689 13.6015C14.1689 13.4617 14.1132 13.3276 14.0144 13.2287L12.0173 11.2316C11.9185 11.1328 11.7844 11.0771 11.6445 11.0771C11.5047 11.0771 11.3705 11.1328 11.2716 11.2316L9.87362 12.6297C9.11762 13.3857 9.11762 14.616 9.87376 15.3724L14.2671 19.766C14.6323 20.1311 15.1195 20.3322 15.6384 20.3322C16.1575 20.3322 16.6446 20.1311 17.0099 19.766L18.4079 18.3681C18.5068 18.2691 18.5624 18.135 18.5624 17.9951C18.5624 17.8553 18.5068 17.7211 18.4079 17.6223L16.4108 15.6251ZM16.2641 19.02C16.0981 19.186 15.8759 19.2775 15.6384 19.2775C15.401 19.2775 15.1788 19.186 15.0128 19.02L10.6196 14.6266C10.2746 14.2816 10.2745 13.7202 10.6195 13.3754L11.6445 12.3502L12.8957 13.6015L12.4697 14.0274C12.3708 14.1263 12.3152 14.2604 12.3152 14.4002C12.3152 14.5402 12.3708 14.6742 12.4697 14.7732L14.8661 17.1696C15.0721 17.3755 15.4059 17.3756 15.6119 17.1696L16.0379 16.7438L17.2891 17.995L16.2641 19.02Z" fill="url(#paint1_linear)"/>
<path d="M15.1367 9.33276C14.8454 9.33276 14.6094 9.56883 14.6094 9.86011C14.6094 10.1512 14.8454 10.3875 15.1367 10.3875C16.3436 10.3875 17.4783 10.8574 18.3317 11.7109C19.1852 12.5643 19.6551 13.6989 19.6551 14.9059C19.6551 15.197 19.8912 15.4332 20.1825 15.4332C20.4736 15.4332 20.7098 15.1971 20.7098 14.9059C20.7098 13.4172 20.1301 12.0177 19.0775 10.9651C18.0249 9.91243 16.6254 9.33276 15.1367 9.33276Z" fill="url(#paint2_linear)"/>
<path d="M17.3958 14.9057C17.3958 15.1968 17.632 15.433 17.9231 15.433C18.2144 15.433 18.4505 15.1968 18.4505 14.9057C18.4505 13.0785 16.9639 11.592 15.1367 11.592C14.8454 11.592 14.6094 11.8281 14.6094 12.1194C14.6094 12.4107 14.8454 12.6467 15.1367 12.6467C16.3824 12.6467 17.3958 13.6601 17.3958 14.9057Z" fill="url(#paint3_linear)"/>
<circle opacity="0.7" cx="15" cy="15" r="14.5" stroke="url(#paint4_linear)"/>
<defs>
<linearGradient id="paint0_linear" x1="23.2437" y1="7" x2="5.24929" y2="20.755" gradientUnits="userSpaceOnUse">
<stop stop-color="#C89A4B"/>
<stop offset="0.505208" stop-color="#F7E6AE"/>
<stop offset="1" stop-color="#C89A4B"/>
</linearGradient>
<linearGradient id="paint1_linear" x1="18.5624" y1="11.0771" x2="9.12722" y2="18.96" gradientUnits="userSpaceOnUse">
<stop stop-color="#C89A4B"/>
<stop offset="0.505208" stop-color="#F7E6AE"/>
<stop offset="1" stop-color="#C89A4B"/>
</linearGradient>
<linearGradient id="paint2_linear" x1="20.7098" y1="9.33276" x2="14.4907" y2="14.5282" gradientUnits="userSpaceOnUse">
<stop stop-color="#C89A4B"/>
<stop offset="0.505208" stop-color="#F7E6AE"/>
<stop offset="1" stop-color="#C89A4B"/>
</linearGradient>
<linearGradient id="paint3_linear" x1="18.4505" y1="11.592" x2="14.5348" y2="14.8633" gradientUnits="userSpaceOnUse">
<stop stop-color="#C89A4B"/>
<stop offset="0.505208" stop-color="#F7E6AE"/>
<stop offset="1" stop-color="#C89A4B"/>
</linearGradient>
<linearGradient id="paint4_linear" x1="30" y1="0" x2="-0.583636" y2="25.5496" gradientUnits="userSpaceOnUse">
<stop stop-color="#C89A4B"/>
<stop offset="0.505208" stop-color="#F7E6AE"/>
<stop offset="1" stop-color="#C89A4B"/>
</linearGradient>
</defs>
</svg>
