<svg width="30" height="30" viewBox="0 0 30 30" fill="none" xmlns="http://www.w3.org/2000/svg">
<g clip-path="url(#clip0)">
<path d="M21.4433 8.55666C19.7946 6.90788 17.6029 6 15.2711 6C15.271 6 15.2704 6 15.2703 6C14.117 6.00014 12.9931 6.22343 11.93 6.66385C10.8668 7.10426 9.91429 7.74106 9.0987 8.55666C7.45006 10.2053 6.54218 12.3973 6.54218 14.7289C6.54218 16.1194 6.87767 17.5012 7.51337 18.7323L6.04614 22.9239C5.94274 23.2196 6.01593 23.5409 6.23758 23.7624C6.39263 23.9176 6.5967 24 6.80654 24C6.89649 24 6.9874 23.9849 7.07611 23.9539L11.2677 22.4868C12.4988 23.1225 13.8806 23.458 15.2711 23.458C17.6027 23.458 19.7946 22.5499 21.4433 20.9013C23.092 19.2527 24 17.0606 24 14.729C24 12.3973 23.0921 10.2053 21.4433 8.55666ZM20.6968 20.1548C19.2476 21.6042 17.3206 22.4022 15.2711 22.4022C14.0173 22.4022 12.7717 22.0921 11.6689 21.5051C11.469 21.3988 11.2327 21.3806 11.0205 21.4549L7.21234 22.7877L8.54526 18.9795C8.61955 18.7671 8.60115 18.5307 8.49486 18.3309C7.90805 17.2284 7.59783 15.9829 7.59783 14.7289C7.59783 12.6794 8.39598 10.7524 9.84522 9.30318C11.2943 7.85408 13.221 7.05592 15.2704 7.05565H15.2711C17.3207 7.05565 19.2476 7.85381 20.6968 9.30318C22.1462 10.7524 22.9444 12.6793 22.9444 14.7289C22.9444 16.7785 22.1462 18.7056 20.6968 20.1548Z" fill="url(#paint0_linear)"/>
<path d="M18.5151 15.5087C18.1135 15.1071 17.4601 15.1071 17.0586 15.5087L16.6194 15.9478C15.5288 15.3536 14.6464 14.4711 14.052 13.3806L14.4912 12.9414C14.8929 12.5399 14.8929 11.8865 14.4912 11.4849L13.3077 10.3014C12.9061 9.89986 12.2527 9.89986 11.8512 10.3014L10.9044 11.2482C10.3621 11.7905 10.3351 12.7228 10.8282 13.8735C11.2564 14.8725 12.04 15.9706 13.0347 16.9653C14.0293 17.96 15.1274 18.7436 16.1265 19.1718C16.6732 19.4061 17.1705 19.5229 17.6002 19.5229C18.0749 19.5229 18.4671 19.3802 18.7518 19.0956L19.6986 18.1487V18.1488C19.8932 17.9542 20.0003 17.6956 20.0003 17.4205C20.0003 17.1453 19.8932 16.8867 19.6986 16.6923L18.5151 15.5087ZM18.0053 18.349C17.8505 18.5038 17.3745 18.558 16.5425 18.2015C15.6638 17.825 14.6832 17.1208 13.7812 16.2188C12.8792 15.3168 12.1751 14.3363 11.7986 13.4576C11.4419 12.6256 11.4962 12.1494 11.6509 11.9947L12.5796 11.0661L13.7265 12.2132L13.1768 12.763C12.9282 13.0116 12.8682 13.3886 13.0277 13.7011C13.7504 15.1184 14.8816 16.2495 16.2988 16.9723C16.6115 17.1317 16.9885 17.0719 17.2371 16.8232L17.7868 16.2734L18.9339 17.4205L18.0053 18.349Z" fill="url(#paint1_linear)"/>
</g>
<circle opacity="0.7" cx="15" cy="15" r="14.5" stroke="url(#paint2_linear)"/>
<defs>
<linearGradient id="paint0_linear" x1="24" y1="6" x2="5.64982" y2="21.3298" gradientUnits="userSpaceOnUse">
<stop stop-color="#C89A4B"/>
<stop offset="0.505208" stop-color="#F7E6AE"/>
<stop offset="1" stop-color="#C89A4B"/>
</linearGradient>
<linearGradient id="paint1_linear" x1="20.0003" y1="10.0002" x2="10.2922" y2="18.1108" gradientUnits="userSpaceOnUse">
<stop stop-color="#C89A4B"/>
<stop offset="0.505208" stop-color="#F7E6AE"/>
<stop offset="1" stop-color="#C89A4B"/>
</linearGradient>
<linearGradient id="paint2_linear" x1="30" y1="0" x2="-0.583636" y2="25.5496" gradientUnits="userSpaceOnUse">
<stop stop-color="#C89A4B"/>
<stop offset="0.505208" stop-color="#F7E6AE"/>
<stop offset="1" stop-color="#C89A4B"/>
</linearGradient>
<clipPath id="clip0">
<rect width="18" height="18" fill="white" transform="translate(6 6)"/>
</clipPath>
</defs>
</svg>
